<svg width="168" height="114" viewBox="0 0 168 114" fill="none" xmlns="http://www.w3.org/2000/svg">
<path d="M6.1 46V12.85H13.2V46H6.1ZM1.15 25.9V19.55H18.6V25.9H1.15ZM34.5336 46.5C31.6669 46.5 29.1669 45.9167 27.0336 44.75C24.9003 43.5833 23.2336 41.9833 22.0336 39.95C20.8336 37.9167 20.2336 35.5833 20.2336 32.95C20.2336 30.9167 20.5669 29.05 21.2336 27.35C21.9003 25.65 22.8336 24.1833 24.0336 22.95C25.2336 21.6833 26.6503 20.7167 28.2836 20.05C29.9503 19.35 31.7503 19 33.6836 19C35.4836 19 37.1503 19.3333 38.6836 20C40.2169 20.6333 41.5336 21.55 42.6336 22.75C43.7669 23.9167 44.6336 25.3 45.2336 26.9C45.8336 28.5 46.1003 30.25 46.0336 32.15L45.9836 34.35H24.7336L23.5836 30H40.1336L39.3336 30.9V29.8C39.2669 28.9 38.9669 28.0833 38.4336 27.35C37.9336 26.6167 37.2836 26.05 36.4836 25.65C35.6836 25.25 34.7836 25.05 33.7836 25.05C32.3169 25.05 31.0669 25.3333 30.0336 25.9C29.0336 26.4667 28.2669 27.3 27.7336 28.4C27.2003 29.5 26.9336 30.8333 26.9336 32.4C26.9336 34 27.2669 35.3833 27.9336 36.55C28.6336 37.7167 29.6003 38.6333 30.8336 39.3C32.1003 39.9333 33.5836 40.25 35.2836 40.25C36.4503 40.25 37.5169 40.0667 38.4836 39.7C39.4503 39.3333 40.4836 38.7 41.5836 37.8L44.9836 42.55C44.0169 43.4167 42.9503 44.15 41.7836 44.75C40.6169 45.3167 39.4169 45.75 38.1836 46.05C36.9503 46.35 35.7336 46.5 34.5336 46.5ZM60.1805 46.5C57.9805 46.5 55.9971 45.9 54.2305 44.7C52.4638 43.5 51.0638 41.8667 50.0305 39.8C48.9971 37.7333 48.4805 35.3667 48.4805 32.7C48.4805 30.0333 48.9971 27.6833 50.0305 25.65C51.0971 23.5833 52.5305 21.9667 54.3305 20.8C56.1305 19.6 58.1805 19 60.4805 19C61.7805 19 62.9638 19.2 64.0305 19.6C65.1305 19.9667 66.0805 20.4833 66.8805 21.15C67.7138 21.8167 68.4138 22.5833 68.9805 23.45C69.5471 24.3167 69.9471 25.25 70.1805 26.25L68.6805 26V19.55H75.7305V46H68.5805V39.65L70.1805 39.5C69.9138 40.4333 69.4805 41.3167 68.8805 42.15C68.2805 42.9833 67.5305 43.7333 66.6305 44.4C65.7638 45.0333 64.7805 45.55 63.6805 45.95C62.5805 46.3167 61.4138 46.5 60.1805 46.5ZM62.1305 40.35C63.4638 40.35 64.6305 40.0333 65.6305 39.4C66.6305 38.7667 67.3971 37.8833 67.9305 36.75C68.4971 35.5833 68.7805 34.2333 68.7805 32.7C68.7805 31.2 68.4971 29.8833 67.9305 28.75C67.3971 27.6167 66.6305 26.7333 65.6305 26.1C64.6305 25.4333 63.4638 25.1 62.1305 25.1C60.8305 25.1 59.6805 25.4333 58.6805 26.1C57.7138 26.7333 56.9471 27.6167 56.3805 28.75C55.8138 29.8833 55.5305 31.2 55.5305 32.7C55.5305 34.2333 55.8138 35.5833 56.3805 36.75C56.9471 37.8833 57.7138 38.7667 58.6805 39.4C59.6805 40.0333 60.8305 40.35 62.1305 40.35ZM81.7988 46V19.55H88.6488L88.7988 24.6L87.7488 24.8C88.1155 23.9333 88.5988 23.15 89.1988 22.45C89.7988 21.75 90.4988 21.15 91.2988 20.65C92.1322 20.15 92.9988 19.7667 93.8988 19.5C94.7988 19.2 95.6988 19.05 96.5988 19.05C97.9655 19.05 99.1988 19.2667 100.299 19.7C101.399 20.1333 102.332 20.8167 103.099 21.75C103.865 22.65 104.465 23.85 104.899 25.35L103.799 25.25L104.149 24.45C104.582 23.65 105.132 22.9333 105.799 22.3C106.465 21.6333 107.215 21.0667 108.049 20.6C108.882 20.1 109.749 19.7167 110.649 19.45C111.549 19.1833 112.432 19.05 113.299 19.05C115.365 19.05 117.082 19.4667 118.449 20.3C119.815 21.1 120.832 22.3167 121.499 23.95C122.199 25.5833 122.549 27.5833 122.549 29.95V46H115.449V30.45C115.449 29.25 115.282 28.2667 114.949 27.5C114.615 26.7333 114.132 26.1667 113.499 25.8C112.865 25.4 112.049 25.2 111.049 25.2C110.282 25.2 109.565 25.3333 108.899 25.6C108.265 25.8333 107.699 26.1833 107.199 26.65C106.732 27.0833 106.365 27.6 106.099 28.2C105.832 28.8 105.699 29.4667 105.699 30.2V46H98.5988V30.4C98.5988 29.3 98.4155 28.3667 98.0488 27.6C97.7155 26.8 97.2322 26.2 96.5988 25.8C95.9655 25.4 95.1822 25.2 94.2488 25.2C93.4822 25.2 92.7655 25.3333 92.0988 25.6C91.4655 25.8333 90.9155 26.1833 90.4488 26.65C89.9822 27.0833 89.5988 27.6 89.2988 28.2C89.0322 28.8 88.8988 29.45 88.8988 30.15V46H81.7988Z" fill="#F5F5F5"/>
<path d="M131.208 46.572C129.856 46.572 128.816 46.1907 128.088 45.428C127.36 44.6653 126.996 43.5733 126.996 42.152C126.996 40.8693 127.377 39.8293 128.14 39.032C128.937 38.2 129.96 37.784 131.208 37.784C132.525 37.784 133.548 38.1653 134.276 38.928C135.004 39.6907 135.368 40.7653 135.368 42.152C135.368 43.4693 134.986 44.544 134.224 45.376C133.461 46.1733 132.456 46.572 131.208 46.572Z" fill="#5468E7"/>
<path d="M5.348 85.14C4.66667 85.14 4.04133 85.0187 3.472 84.776C2.90267 84.5333 2.408 84.188 1.988 83.74C1.568 83.2827 1.24133 82.746 1.008 82.13C0.784 81.514 0.672 80.8373 0.672 80.1C0.672 79.4 0.793333 78.7513 1.036 78.154C1.288 77.5473 1.63333 77.0153 2.072 76.558C2.51067 76.1007 3.01933 75.746 3.598 75.494C4.17667 75.242 4.802 75.116 5.474 75.116C5.95 75.116 6.412 75.1907 6.86 75.34C7.31733 75.48 7.728 75.6807 8.092 75.942C8.46533 76.194 8.76867 76.4833 9.002 76.81L7.994 77.86C7.72333 77.5893 7.448 77.3653 7.168 77.188C6.89733 77.0013 6.61733 76.8613 6.328 76.768C6.048 76.6747 5.76333 76.628 5.474 76.628C5.01667 76.628 4.58733 76.7167 4.186 76.894C3.794 77.062 3.44867 77.3 3.15 77.608C2.86067 77.916 2.632 78.2847 2.464 78.714C2.296 79.134 2.212 79.596 2.212 80.1C2.212 80.632 2.29133 81.1173 2.45 81.556C2.618 81.9853 2.85133 82.354 3.15 82.662C3.44867 82.97 3.80333 83.208 4.214 83.376C4.634 83.5347 5.096 83.614 5.6 83.614C5.908 83.614 6.21133 83.572 6.51 83.488C6.80867 83.404 7.08867 83.2827 7.35 83.124C7.61133 82.9653 7.84933 82.7787 8.064 82.564L8.82 83.796C8.60533 84.048 8.31133 84.2767 7.938 84.482C7.574 84.6873 7.16333 84.8507 6.706 84.972C6.258 85.084 5.80533 85.14 5.348 85.14ZM13.954 85.14C13.2353 85.14 12.5913 84.9767 12.022 84.65C11.462 84.314 11.0186 83.8613 10.692 83.292C10.3653 82.7133 10.202 82.0553 10.202 81.318C10.202 80.5807 10.3653 79.9273 10.692 79.358C11.0186 78.7793 11.462 78.3267 12.022 78C12.5913 77.664 13.2353 77.496 13.954 77.496C14.6633 77.496 15.298 77.664 15.858 78C16.4273 78.3267 16.8753 78.7793 17.202 79.358C17.5286 79.9273 17.692 80.5807 17.692 81.318C17.692 82.0553 17.5286 82.7133 17.202 83.292C16.8753 83.8613 16.4273 84.314 15.858 84.65C15.298 84.9767 14.6633 85.14 13.954 85.14ZM13.954 83.824C14.3926 83.824 14.7846 83.7167 15.13 83.502C15.4753 83.278 15.746 82.9793 15.942 82.606C16.138 82.2233 16.2313 81.794 16.222 81.318C16.2313 80.8327 16.138 80.4033 15.942 80.03C15.746 79.6473 15.4753 79.3487 15.13 79.134C14.7846 78.9193 14.3926 78.812 13.954 78.812C13.5153 78.812 13.1186 78.924 12.764 79.148C12.4186 79.3627 12.148 79.6613 11.952 80.044C11.756 80.4173 11.6626 80.842 11.672 81.318C11.6626 81.794 11.756 82.2233 11.952 82.606C12.148 82.9793 12.4186 83.278 12.764 83.502C13.1186 83.7167 13.5153 83.824 13.954 83.824ZM19.4312 85V74.64H20.8732V85H19.4312ZM23.0849 85V74.64H24.5269V85H23.0849ZM29.4019 85.14C28.7952 85.14 28.2399 84.972 27.7359 84.636C27.2412 84.3 26.8445 83.8427 26.5459 83.264C26.2472 82.6853 26.0979 82.032 26.0979 81.304C26.0979 80.5667 26.2472 79.9133 26.5459 79.344C26.8539 78.7653 27.2645 78.3127 27.7779 77.986C28.3005 77.6593 28.8839 77.496 29.5279 77.496C29.9105 77.496 30.2605 77.552 30.5779 77.664C30.8952 77.776 31.1705 77.9347 31.4039 78.14C31.6465 78.336 31.8425 78.5647 31.9919 78.826C32.1505 79.0873 32.2485 79.3673 32.2859 79.666L31.9639 79.554V77.65H33.4199V85H31.9639V83.25L32.2999 83.152C32.2439 83.404 32.1272 83.6513 31.9499 83.894C31.7819 84.1273 31.5625 84.3373 31.2919 84.524C31.0305 84.7107 30.7365 84.86 30.4099 84.972C30.0925 85.084 29.7565 85.14 29.4019 85.14ZM29.7799 83.81C30.2185 83.81 30.6059 83.7027 30.9419 83.488C31.2779 83.2733 31.5392 82.9793 31.7259 82.606C31.9219 82.2233 32.0199 81.7893 32.0199 81.304C32.0199 80.828 31.9219 80.4033 31.7259 80.03C31.5392 79.6567 31.2779 79.3627 30.9419 79.148C30.6059 78.9333 30.2185 78.826 29.7799 78.826C29.3505 78.826 28.9679 78.9333 28.6319 79.148C28.3052 79.3627 28.0439 79.6567 27.8479 80.03C27.6612 80.4033 27.5679 80.828 27.5679 81.304C27.5679 81.7893 27.6612 82.2233 27.8479 82.606C28.0439 82.9793 28.3052 83.2733 28.6319 83.488C28.9679 83.7027 29.3505 83.81 29.7799 83.81ZM39.4372 85.14C39.1199 85.14 38.8026 85.0887 38.4852 84.986C38.1772 84.8833 37.8926 84.748 37.6312 84.58C37.3792 84.4027 37.1646 84.2113 36.9872 84.006C36.8192 83.7913 36.7072 83.5767 36.6512 83.362L37.0152 83.166V84.958H35.5732V74.64H37.0152V79.33L36.7912 79.204C36.8379 78.9893 36.9406 78.784 37.0992 78.588C37.2579 78.3827 37.4586 78.2007 37.7012 78.042C37.9532 77.874 38.2239 77.7433 38.5132 77.65C38.8026 77.5473 39.0966 77.496 39.3952 77.496C40.0579 77.496 40.6459 77.6593 41.1592 77.986C41.6726 78.3127 42.0786 78.7653 42.3772 79.344C42.6759 79.9133 42.8252 80.5667 42.8252 81.304C42.8252 82.0413 42.6759 82.6993 42.3772 83.278C42.0879 83.8567 41.6866 84.314 41.1732 84.65C40.6599 84.9767 40.0812 85.14 39.4372 85.14ZM39.1992 83.824C39.6286 83.824 40.0112 83.7167 40.3472 83.502C40.6832 83.278 40.9492 82.9793 41.1452 82.606C41.3412 82.2233 41.4392 81.7893 41.4392 81.304C41.4392 80.828 41.3412 80.4033 41.1452 80.03C40.9586 79.6473 40.6972 79.3487 40.3612 79.134C40.0252 78.9193 39.6379 78.812 39.1992 78.812C38.7606 78.812 38.3732 78.9193 38.0372 79.134C37.7012 79.3487 37.4352 79.6473 37.2392 80.03C37.0432 80.4033 36.9452 80.828 36.9452 81.304C36.9452 81.7893 37.0432 82.2233 37.2392 82.606C37.4352 82.9793 37.7012 83.278 38.0372 83.502C38.3732 83.7167 38.7606 83.824 39.1992 83.824ZM47.8356 85.14C47.1169 85.14 46.4729 84.9767 45.9036 84.65C45.3436 84.314 44.9003 83.8613 44.5736 83.292C44.2469 82.7133 44.0836 82.0553 44.0836 81.318C44.0836 80.5807 44.2469 79.9273 44.5736 79.358C44.9003 78.7793 45.3436 78.3267 45.9036 78C46.4729 77.664 47.1169 77.496 47.8356 77.496C48.5449 77.496 49.1796 77.664 49.7396 78C50.3089 78.3267 50.7569 78.7793 51.0836 79.358C51.4103 79.9273 51.5736 80.5807 51.5736 81.318C51.5736 82.0553 51.4103 82.7133 51.0836 83.292C50.7569 83.8613 50.3089 84.314 49.7396 84.65C49.1796 84.9767 48.5449 85.14 47.8356 85.14ZM47.8356 83.824C48.2743 83.824 48.6663 83.7167 49.0116 83.502C49.3569 83.278 49.6276 82.9793 49.8236 82.606C50.0196 82.2233 50.1129 81.794 50.1036 81.318C50.1129 80.8327 50.0196 80.4033 49.8236 80.03C49.6276 79.6473 49.3569 79.3487 49.0116 79.134C48.6663 78.9193 48.2743 78.812 47.8356 78.812C47.3969 78.812 47.0003 78.924 46.6456 79.148C46.3003 79.3627 46.0296 79.6613 45.8336 80.044C45.6376 80.4173 45.5443 80.842 45.5536 81.318C45.5443 81.794 45.6376 82.2233 45.8336 82.606C46.0296 82.9793 46.3003 83.278 46.6456 83.502C47.0003 83.7167 47.3969 83.824 47.8356 83.824ZM53.2849 85V77.65H54.7409V79.96L54.6009 79.4C54.7035 79.0453 54.8762 78.7233 55.1189 78.434C55.3709 78.1447 55.6555 77.916 55.9729 77.748C56.2995 77.58 56.6355 77.496 56.9809 77.496C57.1395 77.496 57.2889 77.51 57.4289 77.538C57.5782 77.566 57.6949 77.5987 57.7789 77.636L57.4009 79.204C57.2889 79.1573 57.1629 79.12 57.0229 79.092C56.8922 79.0547 56.7615 79.036 56.6309 79.036C56.3789 79.036 56.1362 79.0873 55.9029 79.19C55.6789 79.2833 55.4782 79.4187 55.3009 79.596C55.1329 79.764 54.9975 79.9647 54.8949 80.198C54.7922 80.422 54.7409 80.6693 54.7409 80.94V85H53.2849ZM61.5849 85.14C60.9782 85.14 60.4229 84.972 59.9189 84.636C59.4242 84.3 59.0276 83.8427 58.7289 83.264C58.4302 82.6853 58.2809 82.032 58.2809 81.304C58.2809 80.5667 58.4302 79.9133 58.7289 79.344C59.0369 78.7653 59.4476 78.3127 59.9609 77.986C60.4836 77.6593 61.0669 77.496 61.7109 77.496C62.0936 77.496 62.4436 77.552 62.7609 77.664C63.0782 77.776 63.3536 77.9347 63.5869 78.14C63.8296 78.336 64.0256 78.5647 64.1749 78.826C64.3336 79.0873 64.4316 79.3673 64.4689 79.666L64.1469 79.554V77.65H65.6029V85H64.1469V83.25L64.4829 83.152C64.4269 83.404 64.3102 83.6513 64.1329 83.894C63.9649 84.1273 63.7456 84.3373 63.4749 84.524C63.2136 84.7107 62.9196 84.86 62.5929 84.972C62.2756 85.084 61.9396 85.14 61.5849 85.14ZM61.9629 83.81C62.4016 83.81 62.7889 83.7027 63.1249 83.488C63.4609 83.2733 63.7222 82.9793 63.9089 82.606C64.1049 82.2233 64.2029 81.7893 64.2029 81.304C64.2029 80.828 64.1049 80.4033 63.9089 80.03C63.7222 79.6567 63.4609 79.3627 63.1249 79.148C62.7889 78.9333 62.4016 78.826 61.9629 78.826C61.5336 78.826 61.1509 78.9333 60.8149 79.148C60.4882 79.3627 60.2269 79.6567 60.0309 80.03C59.8442 80.4033 59.7509 80.828 59.7509 81.304C59.7509 81.7893 59.8442 82.2233 60.0309 82.606C60.2269 82.9793 60.4882 83.2733 60.8149 83.488C61.1509 83.7027 61.5336 83.81 61.9629 83.81ZM68.6663 85V75.774H70.1083V85H68.6663ZM67.1403 79.05V77.65H71.8163V79.05H67.1403ZM73.5073 85V77.65H74.9493V85H73.5073ZM74.2073 76.026C73.8993 76.026 73.6613 75.9467 73.4933 75.788C73.3253 75.6293 73.2413 75.4053 73.2413 75.116C73.2413 74.8453 73.3253 74.626 73.4933 74.458C73.6707 74.29 73.9087 74.206 74.2073 74.206C74.5153 74.206 74.7533 74.2853 74.9213 74.444C75.0893 74.6027 75.1733 74.8267 75.1733 75.116C75.1733 75.3867 75.0847 75.606 74.9073 75.774C74.7393 75.942 74.506 76.026 74.2073 76.026ZM80.6098 85.14C79.8911 85.14 79.2471 84.9767 78.6778 84.65C78.1178 84.314 77.6745 83.8613 77.3478 83.292C77.0211 82.7133 76.8578 82.0553 76.8578 81.318C76.8578 80.5807 77.0211 79.9273 77.3478 79.358C77.6745 78.7793 78.1178 78.3267 78.6778 78C79.2471 77.664 79.8911 77.496 80.6098 77.496C81.3191 77.496 81.9538 77.664 82.5138 78C83.0831 78.3267 83.5311 78.7793 83.8578 79.358C84.1845 79.9273 84.3478 80.5807 84.3478 81.318C84.3478 82.0553 84.1845 82.7133 83.8578 83.292C83.5311 83.8613 83.0831 84.314 82.5138 84.65C81.9538 84.9767 81.3191 85.14 80.6098 85.14ZM80.6098 83.824C81.0485 83.824 81.4405 83.7167 81.7858 83.502C82.1311 83.278 82.4018 82.9793 82.5978 82.606C82.7938 82.2233 82.8871 81.794 82.8778 81.318C82.8871 80.8327 82.7938 80.4033 82.5978 80.03C82.4018 79.6473 82.1311 79.3487 81.7858 79.134C81.4405 78.9193 81.0485 78.812 80.6098 78.812C80.1711 78.812 79.7745 78.924 79.4198 79.148C79.0745 79.3627 78.8038 79.6613 78.6078 80.044C78.4118 80.4173 78.3185 80.842 78.3278 81.318C78.3185 81.794 78.4118 82.2233 78.6078 82.606C78.8038 82.9793 79.0745 83.278 79.4198 83.502C79.7745 83.7167 80.1711 83.824 80.6098 83.824ZM86.0591 85V77.65H87.5011V79.162L87.2491 79.33C87.3424 79.0033 87.5244 78.7047 87.7951 78.434C88.0658 78.154 88.3878 77.93 88.7611 77.762C89.1344 77.5847 89.5171 77.496 89.9091 77.496C90.4691 77.496 90.9358 77.608 91.3091 77.832C91.6824 78.0467 91.9624 78.378 92.1491 78.826C92.3358 79.274 92.4291 79.8387 92.4291 80.52V85H90.9871V80.618C90.9871 80.198 90.9311 79.8527 90.8191 79.582C90.7071 79.302 90.5344 79.1013 90.3011 78.98C90.0678 78.8493 89.7784 78.7933 89.4331 78.812C89.1531 78.812 88.8964 78.8587 88.6631 78.952C88.4298 79.036 88.2244 79.1573 88.0471 79.316C87.8791 79.4747 87.7438 79.6613 87.6411 79.876C87.5478 80.0813 87.5011 80.3053 87.5011 80.548V85H86.7871C86.6658 85 86.5444 85 86.4231 85C86.3018 85 86.1804 85 86.0591 85ZM98.5891 88.08V77.65H100.045V79.33L99.8211 79.204C99.8771 78.924 100.036 78.658 100.297 78.406C100.558 78.1447 100.876 77.9347 101.249 77.776C101.632 77.608 102.024 77.524 102.425 77.524C103.088 77.524 103.676 77.6873 104.189 78.014C104.702 78.3407 105.108 78.7887 105.407 79.358C105.706 79.9273 105.855 80.5807 105.855 81.318C105.855 82.046 105.706 82.6993 105.407 83.278C105.118 83.8473 104.716 84.3 104.203 84.636C103.69 84.9627 103.111 85.126 102.467 85.126C102.038 85.126 101.622 85.042 101.221 84.874C100.82 84.6967 100.479 84.4727 100.199 84.202C99.9191 83.9313 99.7464 83.6513 99.6811 83.362L100.045 83.166V88.08H98.5891ZM102.229 83.796C102.658 83.796 103.041 83.6887 103.377 83.474C103.713 83.2593 103.979 82.9653 104.175 82.592C104.371 82.2187 104.469 81.794 104.469 81.318C104.469 80.842 104.371 80.422 104.175 80.058C103.988 79.6847 103.727 79.3907 103.391 79.176C103.055 78.9613 102.668 78.854 102.229 78.854C101.79 78.854 101.403 78.9613 101.067 79.176C100.731 79.3813 100.465 79.6707 100.269 80.044C100.073 80.4173 99.9751 80.842 99.9751 81.318C99.9751 81.794 100.073 82.2187 100.269 82.592C100.465 82.9653 100.731 83.2593 101.067 83.474C101.403 83.6887 101.79 83.796 102.229 83.796ZM107.589 85V74.64H109.031V85H107.589ZM113.906 85.14C113.299 85.14 112.744 84.972 112.24 84.636C111.745 84.3 111.349 83.8427 111.05 83.264C110.751 82.6853 110.602 82.032 110.602 81.304C110.602 80.5667 110.751 79.9133 111.05 79.344C111.358 78.7653 111.769 78.3127 112.282 77.986C112.805 77.6593 113.388 77.496 114.032 77.496C114.415 77.496 114.765 77.552 115.082 77.664C115.399 77.776 115.675 77.9347 115.908 78.14C116.151 78.336 116.347 78.5647 116.496 78.826C116.655 79.0873 116.753 79.3673 116.79 79.666L116.468 79.554V77.65H117.924V85H116.468V83.25L116.804 83.152C116.748 83.404 116.631 83.6513 116.454 83.894C116.286 84.1273 116.067 84.3373 115.796 84.524C115.535 84.7107 115.241 84.86 114.914 84.972C114.597 85.084 114.261 85.14 113.906 85.14ZM114.284 83.81C114.723 83.81 115.11 83.7027 115.446 83.488C115.782 83.2733 116.043 82.9793 116.23 82.606C116.426 82.2233 116.524 81.7893 116.524 81.304C116.524 80.828 116.426 80.4033 116.23 80.03C116.043 79.6567 115.782 79.3627 115.446 79.148C115.11 78.9333 114.723 78.826 114.284 78.826C113.855 78.826 113.472 78.9333 113.136 79.148C112.809 79.3627 112.548 79.6567 112.352 80.03C112.165 80.4033 112.072 80.828 112.072 81.304C112.072 81.7893 112.165 82.2233 112.352 82.606C112.548 82.9793 112.809 83.2733 113.136 83.488C113.472 83.7027 113.855 83.81 114.284 83.81ZM120.987 85V75.774H122.429V85H120.987ZM119.461 79.05V77.65H124.137V79.05H119.461ZM126.033 85V76.824C126.033 76.404 126.126 76.0307 126.313 75.704C126.5 75.3773 126.756 75.1207 127.083 74.934C127.41 74.7473 127.788 74.654 128.217 74.654C128.516 74.654 128.796 74.71 129.057 74.822C129.318 74.934 129.528 75.0833 129.687 75.27L129.197 76.376C129.076 76.264 128.94 76.1753 128.791 76.11C128.651 76.0353 128.516 75.998 128.385 75.998C128.189 75.998 128.021 76.0307 127.881 76.096C127.75 76.152 127.652 76.2453 127.587 76.376C127.522 76.4973 127.489 76.6467 127.489 76.824V85H126.761C126.64 85 126.518 85 126.397 85C126.276 85 126.154 85 126.033 85ZM124.857 79.106V77.776H129.225V79.106H124.857ZM133.902 85.14C133.183 85.14 132.539 84.9767 131.97 84.65C131.41 84.314 130.966 83.8613 130.64 83.292C130.313 82.7133 130.15 82.0553 130.15 81.318C130.15 80.5807 130.313 79.9273 130.64 79.358C130.966 78.7793 131.41 78.3267 131.97 78C132.539 77.664 133.183 77.496 133.902 77.496C134.611 77.496 135.246 77.664 135.806 78C136.375 78.3267 136.823 78.7793 137.15 79.358C137.476 79.9273 137.64 80.5807 137.64 81.318C137.64 82.0553 137.476 82.7133 137.15 83.292C136.823 83.8613 136.375 84.314 135.806 84.65C135.246 84.9767 134.611 85.14 133.902 85.14ZM133.902 83.824C134.34 83.824 134.732 83.7167 135.078 83.502C135.423 83.278 135.694 82.9793 135.89 82.606C136.086 82.2233 136.179 81.794 136.17 81.318C136.179 80.8327 136.086 80.4033 135.89 80.03C135.694 79.6473 135.423 79.3487 135.078 79.134C134.732 78.9193 134.34 78.812 133.902 78.812C133.463 78.812 133.066 78.924 132.712 79.148C132.366 79.3627 132.096 79.6613 131.9 80.044C131.704 80.4173 131.61 80.842 131.62 81.318C131.61 81.794 131.704 82.2233 131.9 82.606C132.096 82.9793 132.366 83.278 132.712 83.502C133.066 83.7167 133.463 83.824 133.902 83.824ZM139.351 85V77.65H140.807V79.96L140.667 79.4C140.77 79.0453 140.942 78.7233 141.185 78.434C141.437 78.1447 141.722 77.916 142.039 77.748C142.366 77.58 142.702 77.496 143.047 77.496C143.206 77.496 143.355 77.51 143.495 77.538C143.644 77.566 143.761 77.5987 143.845 77.636L143.467 79.204C143.355 79.1573 143.229 79.12 143.089 79.092C142.958 79.0547 142.828 79.036 142.697 79.036C142.445 79.036 142.202 79.0873 141.969 79.19C141.745 79.2833 141.544 79.4187 141.367 79.596C141.199 79.764 141.064 79.9647 140.961 80.198C140.858 80.422 140.807 80.6693 140.807 80.94V85H139.351ZM145.109 85V77.65H146.565V79.218L146.299 79.386C146.374 79.1433 146.491 78.91 146.649 78.686C146.817 78.462 147.018 78.266 147.251 78.098C147.494 77.9207 147.751 77.7807 148.021 77.678C148.301 77.5753 148.586 77.524 148.875 77.524C149.295 77.524 149.664 77.594 149.981 77.734C150.299 77.874 150.56 78.084 150.765 78.364C150.971 78.644 151.12 78.994 151.213 79.414L150.989 79.358L151.087 79.12C151.19 78.9053 151.33 78.7047 151.507 78.518C151.694 78.322 151.904 78.1493 152.137 78C152.371 77.8507 152.618 77.734 152.879 77.65C153.141 77.566 153.397 77.524 153.649 77.524C154.2 77.524 154.653 77.636 155.007 77.86C155.371 78.084 155.642 78.4247 155.819 78.882C156.006 79.3393 156.099 79.9087 156.099 80.59V85H154.643V80.674C154.643 80.254 154.587 79.9133 154.475 79.652C154.373 79.3813 154.214 79.1807 153.999 79.05C153.785 78.9193 153.509 78.854 153.173 78.854C152.912 78.854 152.665 78.9007 152.431 78.994C152.207 79.078 152.011 79.1993 151.843 79.358C151.675 79.5167 151.545 79.7033 151.451 79.918C151.358 80.1233 151.311 80.352 151.311 80.604V85H149.855V80.646C149.855 80.2633 149.799 79.9413 149.687 79.68C149.575 79.4093 149.412 79.204 149.197 79.064C148.983 78.924 148.721 78.854 148.413 78.854C148.152 78.854 147.909 78.9007 147.685 78.994C147.461 79.078 147.265 79.1993 147.097 79.358C146.929 79.5073 146.799 79.6893 146.705 79.904C146.612 80.1093 146.565 80.3333 146.565 80.576V85H145.109ZM1.806 108V99.824C1.806 99.404 1.89933 99.0307 2.086 98.704C2.27267 98.3773 2.52933 98.1207 2.856 97.934C3.18267 97.7473 3.56067 97.654 3.99 97.654C4.28867 97.654 4.56867 97.71 4.83 97.822C5.09133 97.934 5.30133 98.0833 5.46 98.27L4.97 99.376C4.84867 99.264 4.71333 99.1753 4.564 99.11C4.424 99.0353 4.28867 98.998 4.158 98.998C3.962 98.998 3.794 99.0307 3.654 99.096C3.52333 99.152 3.42533 99.2453 3.36 99.376C3.29467 99.4973 3.262 99.6467 3.262 99.824V108H2.534C2.41267 108 2.29133 108 2.17 108C2.04867 108 1.92733 108 1.806 108ZM0.63 102.106V100.776H4.998V102.106H0.63ZM9.67466 108.14C8.95599 108.14 8.31199 107.977 7.74266 107.65C7.18266 107.314 6.73932 106.861 6.41266 106.292C6.08599 105.713 5.92266 105.055 5.92266 104.318C5.92266 103.581 6.08599 102.927 6.41266 102.358C6.73932 101.779 7.18266 101.327 7.74266 101C8.31199 100.664 8.95599 100.496 9.67466 100.496C10.384 100.496 11.0187 100.664 11.5787 101C12.148 101.327 12.596 101.779 12.9227 102.358C13.2493 102.927 13.4127 103.581 13.4127 104.318C13.4127 105.055 13.2493 105.713 12.9227 106.292C12.596 106.861 12.148 107.314 11.5787 107.65C11.0187 107.977 10.384 108.14 9.67466 108.14ZM9.67466 106.824C10.1133 106.824 10.5053 106.717 10.8507 106.502C11.196 106.278 11.4667 105.979 11.6627 105.606C11.8587 105.223 11.952 104.794 11.9427 104.318C11.952 103.833 11.8587 103.403 11.6627 103.03C11.4667 102.647 11.196 102.349 10.8507 102.134C10.5053 101.919 10.1133 101.812 9.67466 101.812C9.23599 101.812 8.83932 101.924 8.48466 102.148C8.13932 102.363 7.86866 102.661 7.67266 103.044C7.47666 103.417 7.38332 103.842 7.39266 104.318C7.38332 104.794 7.47666 105.223 7.67266 105.606C7.86866 105.979 8.13932 106.278 8.48466 106.502C8.83932 106.717 9.23599 106.824 9.67466 106.824ZM15.1239 108V100.65H16.5799V102.96L16.4399 102.4C16.5426 102.045 16.7153 101.723 16.9579 101.434C17.2099 101.145 17.4946 100.916 17.8119 100.748C18.1386 100.58 18.4746 100.496 18.8199 100.496C18.9786 100.496 19.1279 100.51 19.2679 100.538C19.4173 100.566 19.5339 100.599 19.6179 100.636L19.2399 102.204C19.1279 102.157 19.0019 102.12 18.8619 102.092C18.7313 102.055 18.6006 102.036 18.4699 102.036C18.2179 102.036 17.9753 102.087 17.7419 102.19C17.5179 102.283 17.3173 102.419 17.1399 102.596C16.9719 102.764 16.8366 102.965 16.7339 103.198C16.6313 103.422 16.5799 103.669 16.5799 103.94V108H15.1239ZM24.9462 108V100.65H26.4022V102.218L26.1362 102.386C26.2109 102.143 26.3276 101.91 26.4862 101.686C26.6542 101.462 26.8549 101.266 27.0882 101.098C27.3309 100.921 27.5876 100.781 27.8582 100.678C28.1382 100.575 28.4229 100.524 28.7122 100.524C29.1322 100.524 29.5009 100.594 29.8182 100.734C30.1356 100.874 30.3969 101.084 30.6022 101.364C30.8076 101.644 30.9569 101.994 31.0503 102.414L30.8262 102.358L30.9242 102.12C31.0269 101.905 31.1669 101.705 31.3442 101.518C31.5309 101.322 31.7409 101.149 31.9742 101C32.2076 100.851 32.4549 100.734 32.7162 100.65C32.9776 100.566 33.2343 100.524 33.4862 100.524C34.0369 100.524 34.4896 100.636 34.8442 100.86C35.2082 101.084 35.4789 101.425 35.6562 101.882C35.8429 102.339 35.9362 102.909 35.9362 103.59V108H34.4803V103.674C34.4803 103.254 34.4243 102.913 34.3122 102.652C34.2096 102.381 34.0509 102.181 33.8363 102.05C33.6216 101.919 33.3462 101.854 33.0102 101.854C32.7489 101.854 32.5016 101.901 32.2683 101.994C32.0442 102.078 31.8482 102.199 31.6802 102.358C31.5122 102.517 31.3816 102.703 31.2882 102.918C31.1949 103.123 31.1482 103.352 31.1482 103.604V108H29.6922V103.646C29.6922 103.263 29.6362 102.941 29.5242 102.68C29.4122 102.409 29.2489 102.204 29.0342 102.064C28.8196 101.924 28.5582 101.854 28.2502 101.854C27.9889 101.854 27.7462 101.901 27.5222 101.994C27.2982 102.078 27.1022 102.199 26.9342 102.358C26.7662 102.507 26.6356 102.689 26.5422 102.904C26.4489 103.109 26.4022 103.333 26.4022 103.576V108H24.9462ZM41.3108 108.14C40.5922 108.14 39.9482 107.977 39.3788 107.65C38.8188 107.314 38.3755 106.861 38.0488 106.292C37.7222 105.713 37.5588 105.055 37.5588 104.318C37.5588 103.581 37.7222 102.927 38.0488 102.358C38.3755 101.779 38.8188 101.327 39.3788 101C39.9482 100.664 40.5922 100.496 41.3108 100.496C42.0202 100.496 42.6548 100.664 43.2148 101C43.7842 101.327 44.2322 101.779 44.5588 102.358C44.8855 102.927 45.0488 103.581 45.0488 104.318C45.0488 105.055 44.8855 105.713 44.5588 106.292C44.2322 106.861 43.7842 107.314 43.2148 107.65C42.6548 107.977 42.0202 108.14 41.3108 108.14ZM41.3108 106.824C41.7495 106.824 42.1415 106.717 42.4868 106.502C42.8322 106.278 43.1028 105.979 43.2988 105.606C43.4948 105.223 43.5882 104.794 43.5788 104.318C43.5882 103.833 43.4948 103.403 43.2988 103.03C43.1028 102.647 42.8322 102.349 42.4868 102.134C42.1415 101.919 41.7495 101.812 41.3108 101.812C40.8722 101.812 40.4755 101.924 40.1208 102.148C39.7755 102.363 39.5048 102.661 39.3088 103.044C39.1128 103.417 39.0195 103.842 39.0288 104.318C39.0195 104.794 39.1128 105.223 39.3088 105.606C39.5048 105.979 39.7755 106.278 40.1208 106.502C40.4755 106.717 40.8722 106.824 41.3108 106.824ZM46.7601 108V100.65H48.2161V102.96L48.0761 102.4C48.1788 102.045 48.3514 101.723 48.5941 101.434C48.8461 101.145 49.1308 100.916 49.4481 100.748C49.7748 100.58 50.1108 100.496 50.4561 100.496C50.6148 100.496 50.7641 100.51 50.9041 100.538C51.0534 100.566 51.1701 100.599 51.2541 100.636L50.8761 102.204C50.7641 102.157 50.6381 102.12 50.4981 102.092C50.3674 102.055 50.2368 102.036 50.1061 102.036C49.8541 102.036 49.6114 102.087 49.3781 102.19C49.1541 102.283 48.9534 102.419 48.7761 102.596C48.6081 102.764 48.4728 102.965 48.3701 103.198C48.2674 103.422 48.2161 103.669 48.2161 103.94V108H46.7601ZM55.2981 108.14C54.6261 108.14 54.0241 107.977 53.4921 107.65C52.9695 107.314 52.5541 106.861 52.2461 106.292C51.9381 105.713 51.7841 105.055 51.7841 104.318C51.7841 103.581 51.9335 102.927 52.2321 102.358C52.5401 101.779 52.9555 101.327 53.4781 101C54.0008 100.664 54.5935 100.496 55.2561 100.496C55.6201 100.496 55.9701 100.557 56.3061 100.678C56.6515 100.79 56.9595 100.949 57.2301 101.154C57.5008 101.35 57.7108 101.569 57.8601 101.812C58.0188 102.045 58.0981 102.283 58.0981 102.526L57.6781 102.554V97.64H59.1201V108H57.6781V106.25H57.9581C57.9581 106.474 57.8835 106.698 57.7341 106.922C57.5848 107.137 57.3841 107.337 57.1321 107.524C56.8895 107.711 56.6048 107.86 56.2781 107.972C55.9608 108.084 55.6341 108.14 55.2981 108.14ZM55.4941 106.894C55.9328 106.894 56.3201 106.782 56.6561 106.558C56.9921 106.334 57.2535 106.031 57.4401 105.648C57.6361 105.256 57.7341 104.813 57.7341 104.318C57.7341 103.823 57.6361 103.385 57.4401 103.002C57.2535 102.61 56.9921 102.302 56.6561 102.078C56.3201 101.854 55.9328 101.742 55.4941 101.742C55.0555 101.742 54.6681 101.854 54.3321 102.078C53.9961 102.302 53.7301 102.61 53.5341 103.002C53.3475 103.385 53.2541 103.823 53.2541 104.318C53.2541 104.813 53.3475 105.256 53.5341 105.648C53.7301 106.031 53.9961 106.334 54.3321 106.558C54.6681 106.782 55.0555 106.894 55.4941 106.894ZM64.6752 108.14C63.9192 108.14 63.2472 107.981 62.6592 107.664C62.0805 107.337 61.6232 106.894 61.2872 106.334C60.9605 105.774 60.7972 105.13 60.7972 104.402C60.7972 103.823 60.8905 103.296 61.0772 102.82C61.2639 102.344 61.5205 101.933 61.8472 101.588C62.1832 101.233 62.5799 100.963 63.0372 100.776C63.5039 100.58 64.0079 100.482 64.5492 100.482C65.0252 100.482 65.4685 100.575 65.8792 100.762C66.2899 100.939 66.6445 101.187 66.9432 101.504C67.2512 101.821 67.4845 102.199 67.6432 102.638C67.8112 103.067 67.8905 103.539 67.8812 104.052L67.8672 104.668H61.8612L61.5392 103.52H66.6212L66.4112 103.758V103.422C66.3832 103.114 66.2805 102.839 66.1032 102.596C65.9259 102.353 65.7019 102.162 65.4312 102.022C65.1605 101.882 64.8665 101.812 64.5492 101.812C64.0452 101.812 63.6205 101.91 63.2752 102.106C62.9299 102.293 62.6685 102.573 62.4912 102.946C62.3139 103.31 62.2252 103.763 62.2252 104.304C62.2252 104.817 62.3325 105.265 62.5472 105.648C62.7619 106.021 63.0652 106.311 63.4572 106.516C63.8492 106.721 64.3019 106.824 64.8152 106.824C65.1792 106.824 65.5152 106.763 65.8232 106.642C66.1405 106.521 66.4812 106.301 66.8452 105.984L67.5732 107.006C67.3492 107.23 67.0739 107.426 66.7472 107.594C66.4299 107.762 66.0892 107.897 65.7252 108C65.3705 108.093 65.0205 108.14 64.6752 108.14ZM69.5883 108V100.65H71.0443V102.96L70.9043 102.4C71.007 102.045 71.1796 101.723 71.4223 101.434C71.6743 101.145 71.959 100.916 72.2763 100.748C72.603 100.58 72.939 100.496 73.2843 100.496C73.443 100.496 73.5923 100.51 73.7323 100.538C73.8816 100.566 73.9983 100.599 74.0823 100.636L73.7043 102.204C73.5923 102.157 73.4663 102.12 73.3263 102.092C73.1956 102.055 73.065 102.036 72.9343 102.036C72.6823 102.036 72.4396 102.087 72.2063 102.19C71.9823 102.283 71.7816 102.419 71.6043 102.596C71.4363 102.764 71.301 102.965 71.1983 103.198C71.0956 103.422 71.0443 103.669 71.0443 103.94V108H69.5883ZM75.3748 108V100.65H76.8168V102.162L76.5648 102.33C76.6581 102.003 76.8401 101.705 77.1108 101.434C77.3815 101.154 77.7035 100.93 78.0768 100.762C78.4501 100.585 78.8328 100.496 79.2248 100.496C79.7848 100.496 80.2515 100.608 80.6248 100.832C80.9981 101.047 81.2781 101.378 81.4648 101.826C81.6515 102.274 81.7448 102.839 81.7448 103.52V108H80.3028V103.618C80.3028 103.198 80.2468 102.853 80.1348 102.582C80.0228 102.302 79.8501 102.101 79.6168 101.98C79.3835 101.849 79.0941 101.793 78.7488 101.812C78.4688 101.812 78.2121 101.859 77.9788 101.952C77.7455 102.036 77.5401 102.157 77.3628 102.316C77.1948 102.475 77.0595 102.661 76.9568 102.876C76.8635 103.081 76.8168 103.305 76.8168 103.548V108H76.1028C75.9815 108 75.8601 108 75.7388 108C75.6175 108 75.4961 108 75.3748 108ZM88.8148 108V98.774H90.2568V108H88.8148ZM87.2888 102.05V100.65H91.9648V102.05H87.2888ZM96.7795 108.14C96.0235 108.14 95.3515 107.981 94.7635 107.664C94.1848 107.337 93.7275 106.894 93.3915 106.334C93.0648 105.774 92.9015 105.13 92.9015 104.402C92.9015 103.823 92.9948 103.296 93.1815 102.82C93.3682 102.344 93.6248 101.933 93.9515 101.588C94.2875 101.233 94.6842 100.963 95.1415 100.776C95.6082 100.58 96.1122 100.482 96.6535 100.482C97.1295 100.482 97.5728 100.575 97.9835 100.762C98.3942 100.939 98.7488 101.187 99.0475 101.504C99.3555 101.821 99.5888 102.199 99.7475 102.638C99.9155 103.067 99.9948 103.539 99.9855 104.052L99.9715 104.668H93.9655L93.6435 103.52H98.7255L98.5155 103.758V103.422C98.4875 103.114 98.3848 102.839 98.2075 102.596C98.0302 102.353 97.8062 102.162 97.5355 102.022C97.2648 101.882 96.9708 101.812 96.6535 101.812C96.1495 101.812 95.7248 101.91 95.3795 102.106C95.0342 102.293 94.7728 102.573 94.5955 102.946C94.4182 103.31 94.3295 103.763 94.3295 104.304C94.3295 104.817 94.4368 105.265 94.6515 105.648C94.8662 106.021 95.1695 106.311 95.5615 106.516C95.9535 106.721 96.4062 106.824 96.9195 106.824C97.2835 106.824 97.6195 106.763 97.9275 106.642C98.2448 106.521 98.5855 106.301 98.9495 105.984L99.6775 107.006C99.4535 107.23 99.1782 107.426 98.8515 107.594C98.5342 107.762 98.1935 107.897 97.8295 108C97.4748 108.093 97.1248 108.14 96.7795 108.14ZM104.521 108.14C103.914 108.14 103.359 107.972 102.855 107.636C102.36 107.3 101.963 106.843 101.665 106.264C101.366 105.685 101.217 105.032 101.217 104.304C101.217 103.567 101.366 102.913 101.665 102.344C101.973 101.765 102.383 101.313 102.897 100.986C103.419 100.659 104.003 100.496 104.647 100.496C105.029 100.496 105.379 100.552 105.697 100.664C106.014 100.776 106.289 100.935 106.523 101.14C106.765 101.336 106.961 101.565 107.111 101.826C107.269 102.087 107.367 102.367 107.405 102.666L107.083 102.554V100.65H108.539V108H107.083V106.25L107.419 106.152C107.363 106.404 107.246 106.651 107.069 106.894C106.901 107.127 106.681 107.337 106.411 107.524C106.149 107.711 105.855 107.86 105.529 107.972C105.211 108.084 104.875 108.14 104.521 108.14ZM104.899 106.81C105.337 106.81 105.725 106.703 106.061 106.488C106.397 106.273 106.658 105.979 106.845 105.606C107.041 105.223 107.139 104.789 107.139 104.304C107.139 103.828 107.041 103.403 106.845 103.03C106.658 102.657 106.397 102.363 106.061 102.148C105.725 101.933 105.337 101.826 104.899 101.826C104.469 101.826 104.087 101.933 103.751 102.148C103.424 102.363 103.163 102.657 102.967 103.03C102.78 103.403 102.687 103.828 102.687 104.304C102.687 104.789 102.78 105.223 102.967 105.606C103.163 105.979 103.424 106.273 103.751 106.488C104.087 106.703 104.469 106.81 104.899 106.81ZM110.664 108V100.65H112.12V102.218L111.854 102.386C111.929 102.143 112.045 101.91 112.204 101.686C112.372 101.462 112.573 101.266 112.806 101.098C113.049 100.921 113.305 100.781 113.576 100.678C113.856 100.575 114.141 100.524 114.43 100.524C114.85 100.524 115.219 100.594 115.536 100.734C115.853 100.874 116.115 101.084 116.32 101.364C116.525 101.644 116.675 101.994 116.768 102.414L116.544 102.358L116.642 102.12C116.745 101.905 116.885 101.705 117.062 101.518C117.249 101.322 117.459 101.149 117.692 101C117.925 100.851 118.173 100.734 118.434 100.65C118.695 100.566 118.952 100.524 119.204 100.524C119.755 100.524 120.207 100.636 120.562 100.86C120.926 101.084 121.197 101.425 121.374 101.882C121.561 102.339 121.654 102.909 121.654 103.59V108H120.198V103.674C120.198 103.254 120.142 102.913 120.03 102.652C119.927 102.381 119.769 102.181 119.554 102.05C119.339 101.919 119.064 101.854 118.728 101.854C118.467 101.854 118.219 101.901 117.986 101.994C117.762 102.078 117.566 102.199 117.398 102.358C117.23 102.517 117.099 102.703 117.006 102.918C116.913 103.123 116.866 103.352 116.866 103.604V108H115.41V103.646C115.41 103.263 115.354 102.941 115.242 102.68C115.13 102.409 114.967 102.204 114.752 102.064C114.537 101.924 114.276 101.854 113.968 101.854C113.707 101.854 113.464 101.901 113.24 101.994C113.016 102.078 112.82 102.199 112.652 102.358C112.484 102.507 112.353 102.689 112.26 102.904C112.167 103.109 112.12 103.333 112.12 103.576V108H110.664Z" fill="#F5F5F5"/>
</svg>
